<?xml version="1.0" standalone="no"?>
<!DOCTYPE svg PUBLIC "-//W3C//DTD SVG 20010904//EN"
 "http://www.w3.org/TR/2001/REC-SVG-20010904/DTD/svg10.dtd">
<svg version="1.0" xmlns="http://www.w3.org/2000/svg"
 width="159.000000pt" height="159.000000pt" viewBox="0 0 159.000000 159.000000"
 preserveAspectRatio="xMidYMid meet">

<g transform="translate(0.000000,159.000000) scale(0.100000,-0.100000)"
fill="#000000" stroke="none">
<path d="M0 795 l0 -795 795 0 795 0 0 795 0 795 -795 0 -795 0 0 -795z m1325
580 l0 -130 -510 0 -510 0 -3 119 c-1 66 0 126 2 133 4 11 101 13 513 11 l508
-3 0 -130z m-7 -423 c9 -7 12 -41 10 -138 l-3 -129 -370 -5 -370 -5 0 -135 0
-135 370 -5 370 -5 3 -129 c2 -97 -1 -131 -10 -138 -15 -9 -978 -11 -1002 -2
-14 5 -16 51 -16 413 0 224 3 411 7 414 9 10 996 8 1011 -1z"/>
</g>
</svg>
